<?xml version="1.0" encoding="UTF-8" standalone="no"?>
<!-- Created with Inkscape (http://www.inkscape.org/) -->

<svg
   width="640"
   height="640"
   viewBox="0 0 169.33333 169.33333"
   version="1.1"
   id="svg1"
   xml:space="preserve"
   inkscape:version="1.3.2 (091e20e, 2023-11-25, custom)"
   sodipodi:docname="d314-logo.svg"
   xmlns:inkscape="http://www.inkscape.org/namespaces/inkscape"
   xmlns:sodipodi="http://sodipodi.sourceforge.net/DTD/sodipodi-0.dtd"
   xmlns="http://www.w3.org/2000/svg"
   xmlns:svg="http://www.w3.org/2000/svg"><sodipodi:namedview
     id="namedview1"
     pagecolor="#505050"
     bordercolor="#eeeeee"
     borderopacity="1"
     inkscape:showpageshadow="0"
     inkscape:pageopacity="0"
     inkscape:pagecheckerboard="0"
     inkscape:deskcolor="#505050"
     inkscape:document-units="mm"
     inkscape:zoom="0.72426347"
     inkscape:cx="417.66569"
     inkscape:cy="235.41157"
     inkscape:window-width="1920"
     inkscape:window-height="1009"
     inkscape:window-x="-8"
     inkscape:window-y="-8"
     inkscape:window-maximized="1"
     inkscape:current-layer="layer1" /><defs
     id="defs1"><inkscape:path-effect
       effect="fillet_chamfer"
       id="path-effect1"
       is_visible="true"
       lpeversion="1"
       nodesatellites_param="F,0,0,1,0,0,0,1 @ F,0,0,1,0,0,0,1 @ F,0,0,1,0,0,0,1 @ F,0,0,1,0,0,0,1 @ F,0,0,1,0,0,0,1 @ F,0,0,1,0,0,0,1 @ F,0,0,1,0,0,0,1 @ F,0,0,1,0,0,0,1 @ F,0,0,1,0,0,0,1 @ F,0,0,1,0,0,0,1 @ F,0,0,1,0,0,0,1 @ F,0,0,1,0,0,0,1 @ F,0,0,1,0,0,0,1 @ F,0,0,1,0,0,0,1 @ F,0,0,1,0,0,0,1 @ F,0,0,1,0,0,0,1 @ F,0,0,1,0,0,0,1 @ F,0,0,1,0,0,0,1 @ F,0,0,1,0,0,0,1 @ F,0,0,1,0,0,0,1 @ F,0,0,1,0,0,0,1 @ F,0,0,1,0,0,0,1 @ F,0,0,1,0,0,0,1 @ F,0,0,1,0,0,0,1 @ F,0,0,1,0,0,0,1 @ F,0,0,1,0,0,0,1 @ F,0,0,1,0,0,0,1 @ F,0,0,1,0,0,0,1 @ F,0,0,1,0,0,0,1 @ F,0,0,1,0,0,0,1 @ F,0,0,1,0,0,0,1 @ F,0,0,1,0,0,0,1 @ F,0,0,1,0,0,0,1 @ F,0,0,1,0,0,0,1 @ F,0,0,1,0,0,0,1 @ F,0,0,1,0,0,0,1 @ F,0,0,1,0,0,0,1 @ F,0,0,1,0,0,0,1 @ F,0,0,1,0,0,0,1 @ F,0,0,1,0,0,0,1 @ F,0,0,1,0,0,0,1 @ F,0,0,1,0,0,0,1 @ F,0,0,1,0,0,0,1 @ F,0,0,1,0,0,0,1 @ F,0,0,1,0,0,0,1 @ F,0,0,1,0,0,0,1 @ F,0,0,1,0,0,0,1 @ F,0,0,1,0,0,0,1 @ F,0,0,1,0,0,0,1 @ F,0,0,1,0,0,0,1 @ F,0,0,1,0,0,0,1 @ F,0,0,1,0,0,0,1 @ F,0,0,1,0,0,0,1 @ F,0,0,1,0,0,0,1 @ F,0,0,1,0,0,0,1 @ F,0,0,1,0,0,0,1 @ F,0,0,1,0,0,0,1 @ F,0,0,1,0,0,0,1 @ F,0,0,1,0,0,0,1 @ F,0,0,1,0,0,0,1 @ F,0,0,1,0,0,0,1 @ F,0,0,1,0,0,0,1 @ F,0,0,1,0,0,0,1 @ F,0,0,1,0,0,0,1 @ F,0,0,1,0,0,0,1 @ F,0,0,1,0,0,0,1 @ F,0,0,1,0,0,0,1 @ F,0,0,1,0,0,0,1 @ F,0,0,1,0,0,0,1 @ F,0,0,1,0,0,0,1 @ F,0,0,1,0,0,0,1 @ F,0,0,1,0,0,0,1 @ F,0,0,1,0,0,0,1 @ F,0,0,1,0,0,0,1 @ F,0,0,1,0,0,0,1 @ F,0,0,1,0,0,0,1 @ F,0,0,1,0,0,0,1 @ F,0,0,1,0,0,0,1 @ F,0,0,1,0,0,0,1 @ F,0,0,1,0,0,0,1 @ F,0,0,1,0,0,0,1 @ F,0,0,1,0,0,0,1 @ F,0,0,1,0,0,0,1"
       radius="0"
       unit="px"
       method="auto"
       mode="F"
       chamfer_steps="1"
       flexible="false"
       use_knot_distance="true"
       apply_no_radius="true"
       apply_with_radius="true"
       only_selected="false"
       hide_knots="false" /></defs><g
     inkscape:label="Layer 1"
     inkscape:groupmode="layer"
     id="layer1"
     transform="matrix(0.99645484,0,0,0.99043069,0.08752201,0.63765222)"><g
       id="g22"
       transform="translate(-27.485604,-10.97176)"><circle
         style="fill:#ffffff;fill-opacity:1;stroke-width:1.45484"
         id="path22"
         cx="88.030586"
         cy="76.945297"
         r="9.0410509" /><path
         d="m 101.06367,38.144176 c -0.13699,0 -0.8902,-0.0225 -1.187014,0.046 -0.29682,0.0685 -0.41119,0.1367 -0.57102,0.31936 -0.15982,0.18265 -0.7075,0.75349 -0.82166,0.86765 -0.11416,0.11416 -0.86792,0.5254 -1.05058,0.68523 -0.18266,0.15982 -0.82166,0.57051 -0.82166,0.57051 v 0.36535 l -1.3472,-0.25115 -1.461411,0.15968 c 0,0 -0.319543,0.41124 -0.525033,0.68523 -0.20549,0.27398 -0.616407,0.77613 -0.639237,0.91312 -0.0228,0.137 0.06867,0.75358 0.09147,0.84491 0.0228,0.0913 -0.114205,1.00454 -0.114205,1.14154 0,0.13699 -3.48e-4,0.3652 0.09095,0.52503 0.0913,0.15982 0.205581,0.66197 0.228409,0.91312 0.0228,0.25115 0,0.63951 0,0.82217 0,0.18265 -0.02258,0.38818 -0.04548,0.6165 -0.0228,0.22832 -0.273885,2.39727 -0.273885,2.39727 l -0.114205,1.64383 c 0,0 -0.616914,1.02746 -0.639754,1.11879 -0.0228,0.0913 -0.502295,1.41594 -0.502295,1.41594 0,0 -0.365214,0.59352 -0.525032,0.77618 -0.15983,0.18266 -0.525033,0.31936 -0.525033,0.31936 l -0.273885,-0.4563 c 0,0 -0.29699,-0.0915 -0.45682,-0.0687 -0.15982,0.0228 -1.23262,0.27431 -1.32395,0.29714 -0.0913,0.0228 -0.159955,0.0457 -0.342615,0.1142 -0.18266,0.0685 -0.548284,0.11396 -0.799434,0.29662 -0.25116,0.18266 -0.730555,0.36531 -0.890385,0.5023 -0.15982,0.13699 -0.844393,0.57051 -0.844393,0.57051 0,0 -3.4e-5,0.0688 -0.365352,0.29714 -0.36531,0.22832 -4.246952,2.14598 -4.452442,2.3058 -0.20549,0.15982 -1.529761,0.70792 -1.621089,0.84491 -0.0913,0.13699 -0.273886,0.50229 -0.273886,0.50229 l -0.342614,0.41083 -0.730705,-0.15968 -0.22841,-0.1142 c 0,0 -0.273885,0.47951 -0.273885,0.6165 0,0.137 4.5e-5,0.18278 0.114205,0.34261 0.11416,0.15982 0.274217,0.18284 0.319877,0.45682 0.0457,0.27398 0.136666,0.45644 0.205156,0.54777 0.0685,0.0913 0.434128,0.31978 0.548286,0.34261 0.11416,0.0228 0.639192,0.0455 0.77618,0.0455 0.137,0 0.388088,-0.0454 0.639238,0.046 0.25116,0.0913 0.913122,0.75344 0.913122,0.75344 l 0.114205,1.16427 -0.570507,0.45682 -0.6165,0.5023 -0.548287,-0.34262 -0.707451,-0.27388 -6.004801,1.82624 c 0,0 -0.570967,0.50262 -0.707967,0.54829 -0.13699,0.0457 -0.59376,0.0683 -0.84491,0.0455 -0.25116,-0.0228 -1.164222,-0.22813 -1.301212,-0.29663 l -1.00459,-0.50229 c -0.18265,-0.0913 -1.05057,-0.43404 -1.30173,-0.57103 -0.251148,-0.13699 -1.529622,-0.84491 -1.529622,-0.84491 l -1.027327,-0.63923 c 0,0 -0.296818,-0.84453 -0.251148,-0.93586 0.0457,-0.0913 0.433565,-1.30173 0.433565,-1.30173 l -0.09095,-1.1188 -0.38809,-1.14153 -0.890902,0.046 -0.593245,0.29663 -0.776697,0.41082 -1.872237,-0.27388 -1.369942,-0.57051 -1.369943,-0.84491 -0.77928,-0.0832 0.775146,1.93735 1.35599,1.80816 0.77463,2.13113 1.937349,5.61827 0.58136,4.90822 -1.291394,1.09761 -1.93735,-0.12919 -1.420585,-1.09761 -2.518709,0.19379 -2.777091,1.61437 -1.614372,-0.90434 -1.420585,0.19379 -1.614889,-0.83922 -1.097607,-2.64791 -1.678968,0.0646 -1.872753,0.58136 -1.93735,-0.71055 c 0,0 -1.872853,1.03362 -2.260327,1.35651 -0.387472,0.3229 -4.326868,2.25981 -4.326868,2.25981 l -1.937349,-0.58085 -1.420585,0.90382 -2.195732,-0.19378 -1.098124,0.77514 1.356506,1.54978 2.905766,0.90434 1.033529,2.19573 -1.485698,1.54978 -0.516247,0.58136 0.516247,0.90382 0.904338,0.51676 c 0,0 1.16227,0.96843 1.420585,1.03301 0.258318,0.0646 0.839742,0.0646 0.839742,0.0646 l 1.097607,0.71055 c 0,0 1.09774,0.0646 1.614372,0.0646 0.516631,0 2.712496,0.0646 2.712496,0.0646 l 0.645955,0.38757 1.743563,-0.25838 0.387574,-0.19379 c 0,0 2.453681,0.77517 2.776574,0.83975 0.322895,0.0646 2.906283,1.29139 2.906283,1.29139 l 0.58136,1.74356 4.197676,-1.67896 -4.326867,1.74356 0.710034,1.93735 1.098124,0.64595 0.58136,1.2914 c 0,0 0.968511,0.90437 1.355989,1.03353 0.38747,0.12916 2.324923,0.96841 2.324923,0.96841 0,0 0.451635,0.90441 0.387057,1.16272 -0.0646,0.25832 -0.257866,1.937354 -0.257866,1.937354 l 1.162203,0.64544 1.614372,0.51676 0.710551,1.03353 c 0,0 0.0646,0.64551 0,0.90382 -0.0646,0.25832 -0.322978,0.58136 -0.322978,0.58136 0,0 0.193849,0.77465 0.452169,0.83923 0.25831,0.0646 1.226798,0.25838 1.226798,0.25838 l 0.968933,0.38757 c 0,0 0.58089,0.38764 0.77463,0.64596 0.19374,0.25831 0.323025,0.45177 0.516765,0.90382 0.193738,0.45205 0.25844,0.64602 0.452168,0.90434 0.19374,0.25831 0.193875,0.45218 0.516765,0.51676 0.322898,0.0646 1.033012,0 1.033012,0 0,0 -0.129071,-0.45205 0.322977,0.0646 0.45205,0.51663 0.775147,0.83922 0.775147,0.83922 0,0 0.387072,0.38765 0.451652,0.64596 0.0646,0.25832 0.129191,0.25847 0.129191,0.58136 v 0.83922 c 0,0.45205 0.06459,0.58148 0.06459,1.03353 0,0.45206 -0.06459,0.71011 -0.06459,1.03301 0,0.32289 -0.258367,0.64606 -0.193787,1.03353 0.0646,0.38747 0.323009,1.16233 0.452169,1.61437 0.12915,0.45206 0.06466,0.45176 0.193787,0.83923 0.129158,0.38747 0.129206,0.12934 0.193786,0.71055 0.0646,0.58121 0.71036,-0.45226 0.0646,1.2268 -0.64579,1.67905 -0.775162,2.58338 -0.839742,2.90628 -0.0646,0.32289 -0.322461,1.16221 -0.322461,1.16221 0,0 0.0646,0.0648 -0.0646,0.64595 -0.08323,0.37455 -0.119501,0.54095 -0.166398,0.74931 h 5.253943 v -0.82166 h 3.744474 v -1.73529 h 1.735295 v -20.00085 h 10.86807 v 10.68514 h 1.735295 V 95.349066 h 11.233422 v 3.1967 h 2.648417 v 13.972794 h 3.37912 v -8.49354 h 10.95954 v 8.58501 h 24.56181 c -0.40382,-1.12364 -1.025,-2.82305 -1.0418,-2.89026 -0.0646,-0.25832 0,-2.90577 0,-2.90577 l -0.83923,-3.68143 c 0,0 3.03505,-2.64746 3.35794,-2.90577 0.3229,-0.258314 4.52077,-2.454144 4.97282,-2.583304 0.45205,-0.12916 3.9393,-1.29139 3.9393,-1.29139 l 2.97036,-1.67897 -0.19379,-2.26033 -2.38952,-0.83974 -1.03301,-1.2268 1.80816,-10.72027 1.67897,-2.84169 2.38951,-2.13062 0.58136,-2.06654 c 0,0 -0.323,-1.09821 -0.45216,-1.4211 -0.12916,-0.32289 -1.67907,-2.32494 -2.06655,-2.38952 -0.38745,-0.0646 -2.06664,-0.12916 -2.5187,-0.0646 -0.45205,0.0646 -1.87276,0.12919 -1.87276,0.12919 h -1.2268 c 0,0 -1.16279,-0.38708 -1.4211,-0.51624 -0.25832,-0.12915 -2.97036,-1.22732 -2.97036,-1.22732 h -1.61437 l -2.90628,-2.32492 -2.19574,-1.2268 c 0,0 -0.58102,-0.19377 -1.29139,-0.12919 -0.71037,0.0646 -1.48527,0 -1.80816,0 -0.3229,0 -1.74362,-0.2584 -2.00194,-0.32298 -0.25831,-0.0646 -1.54984,-0.58087 -1.80816,-0.71003 -0.25831,-0.12916 -1.4211,-0.64596 -1.4211,-0.64596 l -2.90577,-1.16272 -1.42058,-0.64544 c 0,0 -0.97793,-0.66327 -1.29708,-0.74879 -0.31914,-0.0855 -0.71262,-0.1912 -0.71262,-0.1912 l -1.09037,-0.41651 -1.2914,-0.12868 h -0.83974 l -0.51676,-1.16272 0.0646,-1.03301 0.0646,-1.09812 -1.03301,-0.96842 -0.79789,0.48989 -0.39222,-1.09244 0.1142,-1.62109 v -1.16478 l -0.82165,-0.93586 -1.233,-0.18294 c 0,0 -0.84505,0.34286 -0.93638,0.41135 -0.0913,0.0685 -0.38809,0.20515 -0.38809,0.20515 l -0.75344,0.046 c 0,0 -0.84454,-0.20558 -0.93586,-0.22841 -0.0913,-0.0228 -0.5256,-0.0687 -0.63976,-0.0687 -0.11416,0 -0.75344,-0.0455 -0.75344,-0.0455 0,0 -0.0912,0.0228 -0.15968,-0.13694 -0.0685,-0.15981 -0.11434,-0.31955 -0.20567,-0.52504 -0.0913,-0.20549 -0.22813,-0.38859 -0.29662,-0.63975 -0.0685,-0.25115 -0.15959,-0.47936 -0.18242,-0.77618 -0.0228,-0.29682 -0.046,-0.73071 -0.046,-0.73071 l 0.046,-0.50229 -0.73071,0.22841 -0.77618,0.54829 -0.6165,0.15968 -1.11879,-0.70797 -0.29714,-0.66198 c 0,0 -0.36535,-0.63932 -0.36535,-0.86764 0,-0.22832 0.31987,-0.84491 0.31987,-0.84491 v -0.6165 c 0,0 -0.25142,-0.2511 -0.43408,-0.38809 -0.18266,-0.13699 -0.73019,-0.34262 -0.73019,-0.34262 0,0 -0.27416,0.25162 -0.45682,0.38861 -0.18266,0.137 -0.98185,0.20516 -0.98185,0.20516 l -0.36535,-0.29663 c 0,0 -0.0911,-0.27406 -0.15968,-0.47955 -0.0685,-0.20549 -0.31969,-0.66212 -0.36535,-0.75345 -0.0457,-0.0913 -0.1143,-0.0457 -0.0915,-0.25114 0.0228,-0.20549 -0.20558,-1.37008 -0.22841,-1.46141 -0.0228,-0.0913 -0.0227,-0.70745 -0.0227,-0.70745 v -0.27441 c 0,0 -0.22812,-0.43385 -0.29662,-0.6165 -0.0685,-0.18266 -0.18242,-0.34209 -0.18242,-0.34209 0,0 -0.93651,-0.41126 -1.02784,-0.43409 -0.0913,-0.0228 -0.4795,-0.0227 -0.6165,-0.0227 z"
         style="mix-blend-mode:lighten;fill:#5d9fee;stroke-width:2.016"
         id="path13" /><path
         id="path21"
         style="fill:#1770de;fill-opacity:1;stroke-width:1.8715"
         d="m 87.836728,61.704666 v 4.94728 c -1.425855,1.38162 -1.11311,3.34673 -1.11311,3.34673 l 0.364835,0.002 c 0.07968,2.03041 0.0013,4.22935 -0.198437,6.50775 h -1.829863 v 2.17059 h 1.600419 c -0.559759,4.84694 -1.543102,9.83655 -2.511474,14.02466 H 82.02468 v 2.44892 h 1.540991 c -1.113333,4.5239 -2.057756,7.624234 -2.057756,7.624234 l -2.453597,6.28909 c 0,0 3.42237,3.11651 4.77852,-1.89225 0.55241,-2.04026 1.413163,-6.9372 2.24224,-12.021074 h 4.607988 c 0.193748,1.04779 0.318327,1.66958 0.318327,1.66958 l 0.580848,4.006734 c 0,0 4.455915,2.28186 1.937342,-3.005164 -0.307752,-0.64604 -0.600732,-1.56355 -0.878492,-2.67115 h 3.332615 v -2.44892 h -3.861265 c -0.78684,-4.07714 -1.409352,-9.42047 -1.860873,-14.02469 h 1.782833 v -2.17059 h -1.995224 c -0.309261,-3.38165 -0.47062,-5.60566 -0.532267,-6.47658 0.336812,10e-5 0.633105,-0.0125 0.629936,-0.0579 -0.13986,-2.00426 -0.731623,-2.93216 -1.201994,-3.35876 v -4.91032 z m 0.490409,18.86639 h 0.264067 c 0.384568,4.29695 1.102307,8.91153 1.65778,12.1324 h -3.778581 c 0.965229,-6.05494 1.730987,-11.27348 1.856734,-12.1324 z" /><path
         d="m 141.34235,112.60992 h -24.56181 v -8.58501 H 105.821 v 8.49354 h -3.37912 V 98.545656 h -2.648424 v -3.1967 H 88.560034 v 17.260964 h -1.735295 v -10.68514 h -10.86807 v 20.00085 h -1.735295 v 1.73529 H 70.4769 v 0.82166 h -5.253943 c -0.02588,0.11496 -0.06902,0.27564 -0.09198,0.41341 -0.0646,0.38747 -0.258413,0.45185 -0.387573,1.2268 -0.12916,0.77495 -0.258382,2.06654 -0.258382,2.06654 0,0 0.839757,1.80823 0.904337,2.06654 0.0646,0.25832 0.128675,0.71015 0.128675,1.1622 0,0.45206 -0.0646,0.77515 -0.0646,0.77515 l -1.937349,10.13892 -2.131136,7.16803 c 0,0 -1.291395,2.38959 -1.291395,2.6479 0,0.25832 0.258383,1.61438 0.258383,1.61438 l 2.131136,0.45216 h 2.324922 1.678968 c 0,0 0.83932,0.3231 1.226798,0.77515 0.38747,0.45205 1.743563,1.74356 1.743563,1.74356 0,0 0.323057,0.38714 0.645955,0.71004 0.32289,0.32289 1.743682,0.90438 2.195732,1.09812 0.225427,0.0966 0.692412,0.17709 1.151351,0.23358 l 2.69751,-2.78484 16.532324,-17.30696 55.337714,0.51677 -2.80913,-2.80913 1.87275,-4.13309 -0.77515,-2.26032 -2.00194,-0.25838 c 0,0 -0.71004,-0.45224 -0.71004,-0.71056 0,-0.25831 0.77463,-2.25981 0.77463,-2.25981 l 1.35651,-2.5833 2.00195,-1.35599 v -1.03353 l -2.90629,-0.19379 -0.51676,-0.77463 c 0,0 -1.81397,-5.02286 -2.96209,-8.21758 z"
         style="fill:#0e4281;stroke-width:2.016"
         id="path15" /><path
         id="path11"
         style="fill:#051a33;stroke-width:2.016"
         d="m 126.19805,68.175046 c -0.22631,-0.02 -0.4592,-0.0141 -0.69608,0.0258 -1.89507,0.31964 -1.68982,3.65352 -1.68982,3.65352 0,0 -0.82196,-0.98203 -2.12338,-1.18752 -1.30143,-0.20549 -1.62109,2.5802 -1.62109,2.5802 0,0 -1.96359,-1.16448 -3.24218,-0.36535 -1.2786,0.79912 -0.77614,1.87231 -0.15968,2.85409 0.61647,0.98178 0.0228,-0.0229 -1.62109,-1.48415 -1.64391,-1.46125 -4.56665,4.56613 -4.56665,4.56613 0,0 1.27884,-0.18221 -2.55695,1.64435 -3.8358,1.82656 -5.66219,5.8446 -5.66219,5.8446 l 2.00918,-1.46089 c 0,0 11.50744,-3.65319 3.10524,6.75824 -8.402214,10.411434 -3.28817,16.987084 -3.28817,16.987084 l 6.21047,10.22883 6.39289,4.74906 5.84512,6.20996 -11.14195,7.48895 -3.65352,-1.27847 -2.34301,2.81223 -12.714994,-0.11886 -16.532324,17.30695 -2.69751,2.78485 c 0.461392,0.0568 0.91472,0.0894 1.108976,0.0894 0.38747,0 2.518286,-0.58136 2.905766,-0.58136 0.38747,0 2.06654,0.25838 2.06654,0.25838 l 2.324923,-0.64596 c 0,0 0.32304,-0.0646 0.58136,0.0646 0.25831,0.12916 0.710108,0.25845 1.033012,0.51676 0.32289,0.25832 0.839742,0.58136 0.839742,0.58136 l 0.516764,0.71004 0.710034,0.64595 c 0,0 1.61446,-0.0647 1.93735,-0.25838 0.3229,-0.19373 2.454114,0.25838 2.454114,0.25838 l 1.614371,0.58136 2.195732,0.77463 1.67948,-0.45217 1.16221,-0.0646 c 0,0 1.29147,0.646 1.61437,0.77515 0.32289,0.12916 1.67897,0.51676 1.67897,0.51676 l 1.421104,-1.22732 1.48518,1.09813 0.96841,0.83922 3.55224,0.25839 1.42059,-1.16221 0.58136,-1.35599 c 0,0 -0.12919,-2.26042 -0.12919,-2.6479 0,-0.38747 0.0646,-3.29334 0.0646,-3.29334 0,0 0.58089,-2.32498 0.71004,-2.5833 0.12916,-0.25832 1.61489,-1.87275 1.61489,-1.87275 l 3.55172,-0.77515 h 2.45411 c 0.25831,0 1.4207,0.12927 1.87275,0.45217 0.45205,0.32289 1.3561,1.16229 1.74357,1.48518 0.38747,0.3229 1.48527,0.77516 1.87275,0.83974 0.38747,0.0646 2.1312,0.19383 2.38952,0.38757 0.25831,0.19374 1.09761,0.96842 1.09761,0.96842 l 1.80815,-1.87275 2.00195,-0.19379 c 0,0 0.96893,0.19369 0.96893,-0.19379 0,-0.38747 0.38758,-1.93735 0.38758,-1.93735 l 1.67896,0.0646 3.16415,1.48518 h 2.19573 c 0,0 0.58098,-0.58084 1.03301,-0.58084 0.45206,0 2.90629,1.67896 2.90629,1.67896 l 2.00194,-0.51676 2.51871,-1.1622 c 0,0 1.03311,-0.38758 1.42059,-0.38758 0.38747,0 0.90433,-0.12919 0.90433,-0.12919 l -0.58136,-2.06654 0.38758,-1.54977 c 0,0 2.00158,-2.002 2.58279,-2.19574 0.58121,-0.19374 2.32492,-2.19573 2.32492,-2.19573 l -1.2268,-0.90433 -2.19573,-0.19379 -2.38952,-1.48518 -0.41961,-0.41961 -14.68334,-0.13695 c -0.80009,-0.78829 -0.085,-2.87921 0.52399,-4.48861 0.6393,-1.68958 6.07302,-4.61212 6.07302,-4.61212 0,0 -0.73073,-0.0459 -1.59835,-0.31988 -0.86762,-0.27398 -1.09587,-0.82188 -3.01377,-3.51607 -1.9179,-2.69418 4.33838,-7.44308 8.67647,-9.90895 4.3381,-2.46587 11.57637,-2.39012 17.48937,1.87224 6.46149,4.65774 5.57072,12.14654 5.57072,12.14654 0,0 -0.43374,3.7445 0.89057,1.09597 1.09692,-2.19377 1.34711,-8.58481 -2.67134,-15.9824 -4.01844,-7.39759 -13.10566,-7.71736 -13.10566,-7.71736 0,0 1.09008,-1.30544 4.97748,-0.63923 14.9119,2.55557 16.2616,13.55763 13.50235,22.09202 0,0 -2.47259,4.70612 -1.29307,3.16086 6.42989,-8.42359 4.44446,-18.62356 3.90997,-19.77338 -5.43403,-11.69003 -23.37979,-10.59392 -23.37979,-10.59392 0,0 8.13762,-6.297104 16.68993,-4.246774 10.57126,2.534364 11.30334,8.699024 11.73715,12.055334 0.43381,3.35632 -2.55838,15.20605 -2.55838,15.20605 0,0 0.74105,-0.37759 2.37453,-3.21892 3.24216,-5.63953 3.48414,-9.30145 3.096,-14.62133 -0.48951,-6.7093 -4.58033,-9.466834 -10.49384,-12.480664 -4.60985,-2.34942 -12.07797,-1.1645 -12.07797,-1.1645 0,0 -0.17263,0.0691 2.3797,-1.58802 3.51297,-2.10778 15.81822,-6.86889 22.18782,-5.07873 3.49332,0.98178 5.58397,0.98381 10.20558,6.09627 2.00756,2.22079 3.21944,8.470284 3.21944,8.470284 0,0 0.0228,-0.38813 0.20549,-3.881434 0.18266,-3.49331 -2.67131,-7.30602 -6.71258,-10.79932 -4.04128,-3.49331 -8.99568,-4.40691 -16.27911,-4.42971 -7.28344,-0.0228 -15.22905,4.90926 -15.22905,4.90926 0,0 1.04438,-4.02283 10.86807,-9.29297 8.58801,-4.60723 8.03945,-6.14664 19.1332,-3.28765 6.69723,1.72596 1.03337,-0.68495 1.03337,-0.68495 0,0 -5.82815,-2.854 -12.01564,-2.69418 -6.1875,0.15983 -16.4617,7.64872 -19.79518,10.50272 -3.33348,2.85402 -8.95036,10.04642 -8.95036,10.04642 0,0 -0.0227,-1.73568 1.46141,-5.38882 1.48408,-3.65313 9.45214,-13.88184 9.45214,-13.88184 0,0 -4.63456,2.42036 -9.70328,8.08271 -5.06872,5.66235 -7.398,14.45287 -7.398,14.45287 0,0 0.15988,1.55247 -0.13694,-1.59836 -0.29682,-3.15082 2.78587,-11.5073 2.78587,-11.5073 v -1.96371 c 0,0 -0.11459,0.20528 -3.76773,5.54798 -3.65313,5.34271 -1.89497,15.822814 -1.89497,15.822814 0,0 -0.77589,-0.54801 -7.96799,-2.237594 -7.1921,-1.68957 -6.50761,-5.70766 -6.50761,-5.70766 0,0 0.54835,-2.07805 -0.0909,-6.165 -0.6393,-4.08695 -6.27921,-5.77639 -6.27921,-5.77639 0,0 7.46634,-0.18285 10.18336,-3.95015 2.71702,-3.76728 0,-7.6941 0,-7.6941 0,0 -1.25852,-1.41613 -2.84272,-1.55598 z m 4.05298,60.462464 2.46549,2.51147 c 0,0 0.50226,0.95922 -0.36536,2.55747 -0.86762,1.59825 -4.06385,4.74912 -5.43377,4.61212 -1.36993,-0.13699 -1.7353,-2.00918 -1.7353,-2.00918 l -2.07119,2.65772 -4.97644,-0.0465 c -0.20375,-0.52969 -0.11207,-1.46379 0.92863,-3.20497 2.37453,-3.97278 11.96412,-5.20588 11.96412,-5.20588 z"
         sodipodi:nodetypes="sccscssscsccsccccccccccssccsscccscccccscccccccscsccssssscccsccccscccscccsccccccscsssscsscscsscsscsssccsscssscsscsscscscsccscscccscssccsscccscc" /></g></g></svg>
